PathFileType	3	(X/Y/Z)	D:\VICON_DB\Goncalves\Pilot01\09-03-2026\bw_sq_01.trc
DataRate	CameraRate	NumFrames	NumMarkers	Units	OrigDataRate	OrigDataStartFrame	OrigNumFrames
200.0	200.0	9	34	mm	200.0	288	767	
Frame#	Time	LASI			RASI			LPSI			RPSI			LTHI			LTHAP			LTHAD			LKNE			LKNM			LTIB			LTIAP			LTIAD			LANK			LMED			LHEE			LTOE			LFMH			LSMH			LVMH			RTHI			RTHAP			RTHAD			RKNE			RKNM			RTIB			RTIAP			RTIAD			RANK			RMED			RHEE			RTOE			RFMH			RSMH			RVMH			
		X1	Y1	Z1	X2	Y2	Z2	X3	Y3	Z3	X4	Y4	Z4	X5	Y5	Z5	X6	Y6	Z6	X7	Y7	Z7	X8	Y8	Z8	X9	Y9	Z9	X10	Y10	Z10	X11	Y11	Z11	X12	Y12	Z12	X13	Y13	Z13	X14	Y14	Z14	X15	Y15	Z15	X16	Y16	Z16	X17	Y17	Z17	X18	Y18	Z18	X19	Y19	Z19	X20	Y20	Z20	X21	Y21	Z21	X22	Y22	Z22	X23	Y23	Z23	X24	Y24	Z24	X25	Y25	Z25	X26	Y26	Z26	X27	Y27	Z27	X28	Y28	Z28	X29	Y29	Z29	X30	Y30	Z30	X31	Y31	Z31	X32	Y32	Z32	X33	Y33	Z33	X34	Y34	Z34	
288	1.435	210.82043	858.43542	-1080.2339	212.83246	863.48468	-1338.8585				393.93912	946.4408	-1237.8555	185.65021	695.56915	-1040.1729	223.57544	754.86633	-1030.223	200.70496	626.79468	-1003.5735	188.62469	466.1225	-1017.4669				232.89775	273.25912	-1001.1219	161.99165	342.73181	-1053.9685	196.05943	241.42262	-1030.4301	283.25879	70.118721	-1029.8485				326.18213	65.156731	-1082.0684	204.40486	71.533646	-1051.1296	148.13385	44.603806	-1076.5922				163.11969	25.066441	-995.60205	197.10947	618.97693	-1394.0121	202.16939	745.29901	-1367.6346	159.93549	667.71045	-1345.6462	193.89767	479.521	-1368.9329				212.01166	284.52002	-1382.9211	164.15251	330.96338	-1329.5715	184.54648	251.01828	-1329.1041	292.26199	62.280552	-1354.455				329.14191	59.929722	-1311.7572	201.99393	68.896111	-1334.771	152.38301	49.347836	-1309.969				164.94667	20.467394	-1383.3083
289	1.44	212.07106	857.0257	-1080.3286	213.94754	862.09393	-1338.9183				394.90054	945.45856	-1238.0831	186.44809	695.25952	-1039.9574	224.70642	754.24182	-1030.1719	201.04347	626.44293	-1003.3145	187.88	465.84991	-1017.0635				232.28838	273.0477	-1000.9167	161.14392	342.40457	-1053.6534	195.52531	241.1413	-1030.2428	283.18829	70.092079	-1029.8344				326.11761	65.21315	-1082.0576	204.36368	71.513474	-1051.1195	148.11697	44.608818	-1076.5643				163.11845	25.053736	-995.58051	197.29764	618.45697	-1394.1154	203.15854	744.61993	-1367.7546	160.4668	667.42725	-1345.6769	192.95657	479.10336	-1369.0599				211.13065	284.19357	-1382.9398	163.13458	330.50992	-1329.5894	183.83325	250.65512	-1329.0869	292.18866	62.289421	-1354.499				329.08456	59.972763	-1311.7655	201.96338	68.888283	-1334.7634	152.3647	49.346416	-1309.9722				164.93494	20.476524	-1383.3123
290	1.445	213.33794	855.56995	-1080.4249	215.07292	860.6615	-1338.9813				395.87286	944.43384	-1238.3175	187.24992	694.93329	-1039.7341	225.84666	753.59497	-1030.1182	201.38826	626.07153	-1003.0495	187.11833	465.56531	-1016.6496				231.66328	272.82855	-1000.7058	160.276	342.06738	-1053.3318	194.97838	240.85153	-1030.0525	283.11517	70.063545	-1029.8219				326.05109	65.271545	-1082.0493	204.32123	71.491089	-1051.1094	148.0997	44.614159	-1076.5356				163.11742	25.041056	-995.55872	197.47029	617.91467	-1394.1949	204.15491	743.90344	-1367.8691	160.99539	667.12152	-1345.6818	191.98743	478.67133	-1369.17				210.228	283.85629	-1382.9419	162.10071	330.04288	-1329.5835	183.10617	250.28101	-1329.0516	292.11261	62.296314	-1354.5398				329.02823	60.015697	-1311.7728	201.9352	68.877151	-1334.7499	152.34625	49.345364	-1309.973				164.92564	20.484976	-1383.3114
291	1.45	214.62004	854.06818	-1080.5236	216.20895	859.18756	-1339.0485				396.85696	943.36438	-1238.558	188.05383	694.58917	-1039.5063	226.99539	752.92474	-1030.0624	201.73927	625.68005	-1002.7796	186.34169	465.26782	-1016.226				231.02399	272.6015	-1000.4894	159.38908	341.72015	-1053.0028	194.41983	240.55334	-1029.8589	283.03961	70.033913	-1029.8102				325.98267	65.331383	-1082.0438	204.2778	71.467247	-1051.0991	148.08223	44.619949	-1076.5068				163.11668	25.028629	-995.53699	197.62489	617.35272	-1394.2507	205.1541	743.15082	-1367.976	161.52048	666.79382	-1345.66	190.99098	478.22559	-1369.2629				209.30424	283.50864	-1382.9272	161.05121	329.56354	-1329.5536	182.36615	249.8963	-1328.9977	292.03433	62.30106	-1354.5759				328.9725	60.058563	-1311.7789	201.90952	68.86293	-1334.7307	152.32767	49.344864	-1309.9714				164.91867	20.493074	-1383.3059
292	1.455	215.91628	852.5199	-1080.6252	217.35597	857.67236	-1339.1211				397.85327	942.24835	-1238.804	188.85867	694.22565	-1039.2772	228.15218	752.22931	-1030.0052	202.09644	625.26788	-1002.5057	185.55196	464.95688	-1015.7924				230.37216	272.36664	-1000.2665	158.48459	341.36276	-1052.6664	193.85112	240.24677	-1029.6613	282.96179	70.003769	-1029.7996				325.91245	65.392052	-1082.0408	204.23366	71.442551	-1051.0884	148.0647	44.626289	-1076.4779				163.11624	25.016626	-995.51532	197.75906	616.77374	-1394.2826	206.15273	742.36322	-1368.0737	162.04128	666.44446	-1345.6113	189.96831	477.76685	-1369.338				208.36023	283.15112	-1382.8964	159.98639	329.07349	-1329.5002	181.6144	249.5013	-1328.9253	291.95407	62.303555	-1354.6062				328.91721	60.10141	-1311.7842	201.88617	68.845924	-1334.7056	152.30891	49.345051	-1309.9679				164.91383	20.501278	-1383.2957
293	1.46	217.22574	850.92493	-1080.7302	218.51428	856.11566	-1339.2002				398.86209	941.08466	-1239.0551	189.66408	693.84125	-1039.0494	229.31664	751.50732	-1029.9475	202.45979	624.83453	-1002.2283	184.7506	464.63202	-1015.3491				229.70963	272.12396	-1000.0374	157.56401	340.99515	-1052.3214	193.27377	239.93184	-1029.459	282.88208	69.973457	-1029.7894				325.84076	65.452904	-1082.04	204.1893	71.417351	-1051.0765	148.04738	44.633266	-1076.4485				163.11617	25.005133	-995.49396	197.87108	616.17969	-1394.2905	207.14821	741.54169	-1368.1615	162.55711	666.07422	-1345.5356	188.92076	477.29575	-1369.396				207.39728	282.78436	-1382.8496	158.90668	328.57422	-1329.4244	180.85226	249.09653	-1328.8344	291.87222	62.303825	-1354.6298				328.86182	60.144306	-1311.7885	201.86484	68.826546	-1334.6746	152.28987	49.345974	-1309.9618				164.9109	20.510153	-1383.2809
294	1.465	218.54768	849.28308	-1080.8385	219.6841	854.51709	-1339.2867				399.88315	939.87317	-1239.3105	190.47044	693.43427	-1038.8256	230.48843	750.75714	-1029.8904	202.82953	624.37982	-1001.9484	183.93861	464.29352	-1014.8954				229.03831	271.87366	-999.80115	156.62898	340.61728	-1051.967	192.68941	239.60864	-1029.2512	282.80121	69.943054	-1029.7794				325.76788	65.51329	-1082.041	204.14511	71.391853	-1051.0637	148.03046	44.640949	-1076.4186				163.11649	24.994146	-995.47278	197.96001	615.57251	-1394.2756	208.13887	740.68738	-1368.2385	163.06746	665.68359	-1345.4333	187.8501	476.81308	-1369.4371				206.41739	282.40912	-1382.7877	157.81294	328.06689	-1329.3276	180.08127	248.68253	-1328.7257	291.78912	62.301979	-1354.6464				328.80594	60.187317	-1311.7917	201.84486	68.805305	-1334.6382	152.27043	49.347591	-1309.9535				164.90961	20.520298	-1383.2615
295	1.47	219.88139	847.59454	-1080.9502	220.86575	852.87604	-1339.3813				400.9162	938.61407	-1239.5701	191.27859	693.00311	-1038.6073	231.66714	749.97742	-1029.8352	203.2058	623.90302	-1001.6668	183.11661	463.94168	-1014.4311				228.36014	271.61581	-999.55725	155.68108	340.2291	-1051.6024	192.09961	239.27737	-1029.0371	282.71994	69.912415	-1029.7694				325.69412	65.572578	-1082.0432	204.10161	71.366096	-1051.0494	148.01425	44.649387	-1076.3882				163.1172	24.983599	-995.45166	198.02591	614.95343	-1394.239	209.12373	739.80139	-1368.3052	163.57216	665.27332	-1345.3057	186.75842	476.31946	-1369.463				205.42299	282.02612	-1382.7117	156.70651	327.55249	-1329.2119	179.30299	248.25996	-1328.6007	291.70499	62.298244	-1354.6555				328.7493	60.230518	-1311.7943	201.82545	68.782753	-1334.597	152.25053	49.349739	-1309.9425				164.90962	20.532282	-1383.2375
296	1.475	221.2262	845.8595	-1081.0647	222.0596	851.19128	-1339.4851				401.96121	937.30731	-1239.8331	192.08978	692.54651	-1038.3962	232.85228	749.16693	-1029.7832	203.58882	623.40387	-1001.3843	182.28523	463.57709	-1013.9558				227.67696	271.35052	-999.30554	154.72194	339.83057	-1051.2268	191.50598	238.93825	-1028.8162	282.63931	69.881104	-1029.7593				325.61987	65.630165	-1082.0454	204.05927	71.340012	-1051.0339	147.99895	44.658585	-1076.3575				163.11835	24.973352	-995.43066	198.06987	614.32281	-1394.1826	210.1022	738.88483	-1368.3611	164.07133	664.84406	-1345.1542	185.64818	475.81555	-1369.4752				204.41678	281.63617	-1382.6227	155.58911	327.03177	-1329.0796	178.51917	247.82957	-1328.4612	291.61993	62.293098	-1354.6578				328.69147	60.273994	-1311.7955	201.8055	68.759529	-1334.5516	152.22998	49.352177	-1309.9287				164.91052	20.546602	-1383.2097
